<?xml version="1.0" encoding="iso-8859-1"?>
<!-- Generator: Adobe Illustrator 19.0.0, SVG Export Plug-In . SVG Version: 6.00 Build 0)  -->
<svg version="1.1" id="Layer_1" xmlns="http://www.w3.org/2000/svg" xmlns:xlink="http://www.w3.org/1999/xlink" x="0px" y="0px"
	 viewBox="0 0 512 512" style="enable-background:new 0 0 512 512;" xml:space="preserve">
<g>
	<g>
		<g>
			<path d="M394.667,341.333c-5.896,0-10.667,4.771-10.667,10.667v21.333c0,5.896,4.771,10.667,10.667,10.667
				s10.667-4.771,10.667-10.667V352C405.333,346.104,400.563,341.333,394.667,341.333z"/>
			<path d="M330.667,341.333c-5.896,0-10.667,4.771-10.667,10.667v21.333c0,5.896,4.771,10.667,10.667,10.667
				c5.896,0,10.667-4.771,10.667-10.667V352C341.333,346.104,336.563,341.333,330.667,341.333z"/>
			<path d="M224,341.333c-5.896,0-10.667,4.771-10.667,10.667v21.333c0,5.896,4.771,10.667,10.667,10.667
				s10.667-4.771,10.667-10.667V352C234.667,346.104,229.896,341.333,224,341.333z"/>
			<path d="M181.333,341.333c-5.896,0-10.667,4.771-10.667,10.667v21.333c0,5.896,4.771,10.667,10.667,10.667
				c5.896,0,10.667-4.771,10.667-10.667V352C192,346.104,187.229,341.333,181.333,341.333z"/>
			<path d="M138.667,341.333c-5.896,0-10.667,4.771-10.667,10.667v21.333c0,5.896,4.771,10.667,10.667,10.667
				c5.896,0,10.667-4.771,10.667-10.667V352C149.333,346.104,144.563,341.333,138.667,341.333z"/>
			<path d="M469.333,64h-32c-5.896,0-10.667,4.771-10.667,10.667c0,5.896,4.771,10.667,10.667,10.667h32
				c11.771,0,21.333,9.573,21.333,21.333v32c0,5.896,4.771,10.667,10.667,10.667c5.896,0,10.667-4.771,10.667-10.667v-32
				C512,83.135,492.854,64,469.333,64z"/>
			<path d="M10.667,149.333c5.896,0,10.667-4.771,10.667-10.667v-32c0-11.76,9.563-21.333,21.333-21.333h32
				c5.896,0,10.667-4.771,10.667-10.667C85.333,68.771,80.563,64,74.667,64h-32C19.146,64,0,83.135,0,106.667v32
				C0,144.563,4.771,149.333,10.667,149.333z"/>
			<path d="M501.333,362.667c-5.896,0-10.667,4.771-10.667,10.667v32c0,11.76-9.563,21.333-21.333,21.333h-32
				c-5.896,0-10.667,4.771-10.667,10.667c0,5.896,4.771,10.667,10.667,10.667h32C492.854,448,512,428.865,512,405.333v-32
				C512,367.438,507.229,362.667,501.333,362.667z"/>
			<path d="M74.667,426.667h-32c-11.771,0-21.333-9.573-21.333-21.333v-32c0-5.896-4.771-10.667-10.667-10.667
				C4.771,362.667,0,367.438,0,373.333v32C0,428.865,19.146,448,42.667,448h32c5.896,0,10.667-4.771,10.667-10.667
				C85.333,431.438,80.563,426.667,74.667,426.667z"/>
			<path d="M501.333,234.667H10.667C4.771,234.667,0,239.438,0,245.333C0,251.229,4.771,256,10.667,256H64v117.333
				C64,379.229,68.771,384,74.667,384c5.896,0,10.667-4.771,10.667-10.667V256H128v53.333c0,5.896,4.771,10.667,10.667,10.667
				c5.896,0,10.667-4.771,10.667-10.667V256h21.333v53.333c0,5.896,4.771,10.667,10.667,10.667c5.896,0,10.667-4.771,10.667-10.667
				V256h21.333v53.333c0,5.896,4.771,10.667,10.667,10.667s10.667-4.771,10.667-10.667V256h42.667v117.333
				c0,5.896,4.771,10.667,10.667,10.667s10.667-4.771,10.667-10.667V256H320v53.333c0,5.896,4.771,10.667,10.667,10.667
				c5.896,0,10.667-4.771,10.667-10.667V256H384v53.333c0,5.896,4.771,10.667,10.667,10.667s10.667-4.771,10.667-10.667V256h21.333
				v117.333c0,5.896,4.771,10.667,10.667,10.667c5.896,0,10.667-4.771,10.667-10.667V256h53.333c5.896,0,10.667-4.771,10.667-10.667
				C512,239.438,507.229,234.667,501.333,234.667z"/>
			<path d="M74.667,128C68.771,128,64,132.771,64,138.667v64c0,5.896,4.771,10.667,10.667,10.667
				c5.896,0,10.667-4.771,10.667-10.667v-64C85.333,132.771,80.563,128,74.667,128z"/>
			<path d="M138.667,213.333c5.896,0,10.667-4.771,10.667-10.667v-64c0-5.896-4.771-10.667-10.667-10.667
				c-5.896,0-10.667,4.771-10.667,10.667v64C128,208.563,132.771,213.333,138.667,213.333z"/>
			<path d="M181.333,213.333c5.896,0,10.667-4.771,10.667-10.667v-64c0-5.896-4.771-10.667-10.667-10.667
				c-5.896,0-10.667,4.771-10.667,10.667v64C170.667,208.563,175.438,213.333,181.333,213.333z"/>
			<path d="M224,213.333c5.896,0,10.667-4.771,10.667-10.667v-64c0-5.896-4.771-10.667-10.667-10.667s-10.667,4.771-10.667,10.667
				v64C213.333,208.563,218.104,213.333,224,213.333z"/>
			<path d="M288,213.333c5.896,0,10.667-4.771,10.667-10.667v-64c0-5.896-4.771-10.667-10.667-10.667s-10.667,4.771-10.667,10.667
				v64C277.333,208.563,282.104,213.333,288,213.333z"/>
			<path d="M330.667,213.333c5.896,0,10.667-4.771,10.667-10.667v-64c0-5.896-4.771-10.667-10.667-10.667
				c-5.896,0-10.667,4.771-10.667,10.667v64C320,208.563,324.771,213.333,330.667,213.333z"/>
			<path d="M394.667,213.333c5.896,0,10.667-4.771,10.667-10.667v-64c0-5.896-4.771-10.667-10.667-10.667S384,132.771,384,138.667
				v64C384,208.563,388.771,213.333,394.667,213.333z"/>
			<path d="M437.333,213.333c5.896,0,10.667-4.771,10.667-10.667v-64c0-5.896-4.771-10.667-10.667-10.667
				c-5.896,0-10.667,4.771-10.667,10.667v64C426.667,208.563,431.438,213.333,437.333,213.333z"/>
		</g>
	</g>
</g>
<g>
</g>
<g>
</g>
<g>
</g>
<g>
</g>
<g>
</g>
<g>
</g>
<g>
</g>
<g>
</g>
<g>
</g>
<g>
</g>
<g>
</g>
<g>
</g>
<g>
</g>
<g>
</g>
<g>
</g>
</svg>
